  0
SECTION
  2
HEADER
  9
$ACADVER
  1
AC1014
  9
$HANDSEED
  5
FFFF
  9
$INSUNITS
 70
     4
  9
$MEASUREMENT
 70
     1
  0
ENDSEC
  0
SECTION
  2
TABLES
  0
TABLE
  2
VPORT
  5
8
330
0
100
AcDbSymbolTable
 70
     4
  0
VPORT
  5
2E
330
8
100
AcDbSymbolTableRecord
100
AcDbViewportTableRecord
  2
*ACTIVE
 70
     0
 10
0.0
 20
0.0
 11
1.0
 21
1.0
 12
210.0
 22
148.5
 13
0.0
 23
0.0
 14
10.0
 24
10.0
 15
10.0
 25
10.0
 16
0.0
 26
0.0
 36
1.0
 17
0.0
 27
0.0
 37
0.0
 40
341.0
 41
1.24
 42
50.0
 43
0.0
 44
0.0
 50
0.0
 51
0.0
 71
     0
 72
   100
 73
     1
 74
     3
 75
     0
 76
     0
 77
     0
 78
     0
  0
ENDTAB
  0
TABLE
  2
LTYPE
  5
5
330
0
100
AcDbSymbolTable
 70
     1
  0
LTYPE
  5
14
330
5
100
AcDbSymbolTableRecord
100
AcDbLinetypeTableRecord
  2
BYBLOCK
 70
     0
  3

 72
    65
 73
     0
 40
0.0
  0
LTYPE
  5
15
330
5
100
AcDbSymbolTableRecord
100
AcDbLinetypeTableRecord
  2
BYLAYER
 70
     0
  3

 72
    65
 73
     0
 40
0.0
  0
LTYPE
  5
16
330
5
100
AcDbSymbolTableRecord
100
AcDbLinetypeTableRecord
  2
CONTINUOUS
 70
     0
  3
Solid line
 72
    65
 73
     0
 40
0.0
  0
ENDTAB
  0
TABLE
  2
LAYER
  5
2
100
AcDbSymbolTable
 70
2
  0
LAYER
  5
50
100
AcDbSymbolTableRecord
100
AcDbLayerTableRecord
  2
0
 70
0
  6
CONTINUOUS
  0
LAYER
  5
51
100
AcDbSymbolTableRecord
100
AcDbLayerTableRecord
  2
Layer_1
 70
0
  6
CONTINUOUS
  0
ENDTAB
  0
TABLE
  2
STYLE
  5
3
330
0
100
AcDbSymbolTable
 70
     1
  0
STYLE
  5
11
330
3
100
AcDbSymbolTableRecord
100
AcDbTextStyleTableRecord
  2
STANDARD
 70
     0
 40
0.0
 41
1.0
 50
0.0
 71
     0
 42
2.5
  3
txt
  4

  0
ENDTAB
  0
TABLE
  2
VIEW
  5
6
330
0
100
AcDbSymbolTable
 70
     0
  0
ENDTAB
  0
TABLE
  2
UCS
  5
7
330
0
100
AcDbSymbolTable
 70
     0
  0
ENDTAB
  0
TABLE
  2
APPID
  5
9
330
0
100
AcDbSymbolTable
 70
     2
  0
APPID
  5
12
330
9
100
AcDbSymbolTableRecord
100
AcDbRegAppTableRecord
  2
ACAD
 70
     0
  0
ENDTAB
  0
TABLE
  2
DIMSTYLE
  5
A
330
0
100
AcDbSymbolTable
 70
     1
  0
DIMSTYLE
105
27
330
A
100
AcDbSymbolTableRecord
100
AcDbDimStyleTableRecord
  2
ISO-25
 70
     0
  3

  4

  5

  6

  7

 40
1.0
 41
2.5
 42
0.625
 43
3.75
 44
1.25
 45
0.0
 46
0.0
 47
0.0
 48
0.0
140
2.5
141
2.5
142
0.0
143
0.03937007874016
144
1.0
145
0.0
146
1.0
147
0.625
 71
     0
 72
     0
 73
     0
 74
     0
 75
     0
 76
     0
 77
     1
 78
     8
170
     0
171
     3
172
     1
173
     0
174
     0
175
     0
176
     0
177
     0
178
     0
270
     2
271
     2
272
     2
273
     2
274
     3
340
11
275
     0
280
     0
281
     0
282
     0
283
     0
284
     8
285
     0
286
     0
287
     3
288
     0
  0
ENDTAB
  0
TABLE
  2
BLOCK_RECORD
  5
1
330
0
100
AcDbSymbolTable
 70
     1
  0
BLOCK_RECORD
  5
1F
330
1
100
AcDbSymbolTableRecord
100
AcDbBlockTableRecord
  2
*MODEL_SPACE
  0
BLOCK_RECORD
  5
1B
330
1
100
AcDbSymbolTableRecord
100
AcDbBlockTableRecord
  2
*PAPER_SPACE
  0
ENDTAB
  0
ENDSEC
  0
SECTION
  2
BLOCKS
  0
BLOCK
  5
20
330
1F
100
AcDbEntity
  8
0
100
AcDbBlockBegin
  2
*MODEL_SPACE
 70
     0
 10
0.0
 20
0.0
 30
0.0
  3
*MODEL_SPACE
  1

  0
ENDBLK
  5
21
330
1F
100
AcDbEntity
  8
0
100
AcDbBlockEnd
  0
BLOCK
  5
1C
330
1B
100
AcDbEntity
 67
     1
  8
0
100
AcDbBlockBegin
  2
*PAPER_SPACE
  1

  0
ENDBLK
  5
1D
330
1B
100
AcDbEntity
 67
     1
  8
0
100
AcDbBlockEnd
  0
ENDSEC
  0
SECTION
  2
ENTITIES
  0
SPLINE
  5
100
100
AcDbEntity
  8
Layer_1
 62
1
100
AcDbSpline
 70
8
 71
3
 72
8
 73
4
 74
0
 40
0
 40
0
 40
0
 40
0
 40
1
 40
1
 40
1
 40
1
 10
48.744985
 20
252.274981
 30
0.0
 10
46.014884
 20
249.955996
 30
0.0
 10
48.209682
 20
245.044309
 30
0.0
 10
47.006520
 20
241.670359
 30
0.0
  0
SPLINE
  5
101
100
AcDbEntity
  8
Layer_1
 62
1
100
AcDbSpline
 70
8
 71
3
 72
8
 73
4
 74
0
 40
0
 40
0
 40
0
 40
0
 40
1
 40
1
 40
1
 40
1
 10
47.006520
 20
241.670359
 30
0.0
 10
46.149964
 20
239.268373
 30
0.0
 10
44.853816
 20
236.971887
 30
0.0
 10
43.187916
 20
235.041083
 30
0.0
  0
SPLINE
  5
102
100
AcDbEntity
  8
Layer_1
 62
1
100
AcDbSpline
 70
8
 71
3
 72
8
 73
4
 74
0
 40
0
 40
0
 40
0
 40
0
 40
1
 40
1
 40
1
 40
1
 10
43.187916
 20
235.041083
 30
0.0
 10
42.029143
 20
233.698047
 30
0.0
 10
40.628155
 20
232.477050
 30
0.0
 10
39.015607
 20
231.738003
 30
0.0
  0
SPLINE
  5
103
100
AcDbEntity
  8
Layer_1
 62
1
100
AcDbSpline
 70
8
 71
3
 72
8
 73
4
 74
0
 40
0
 40
0
 40
0
 40
0
 40
1
 40
1
 40
1
 40
1
 10
39.015607
 20
231.738003
 30
0.0
 10
36.104598
 20
230.403859
 30
0.0
 10
32.621045
 20
230.933241
 30
0.0
 10
29.581684
 20
229.925173
 30
0.0
  0
SPLINE
  5
104
100
AcDbEntity
  8
Layer_1
 62
1
100
AcDbSpline
 70
8
 71
3
 72
8
 73
4
 74
0
 40
0
 40
0
 40
0
 40
0
 40
1
 40
1
 40
1
 40
1
 10
29.581684
 20
229.925173
 30
0.0
 10
27.687492
 20
229.296924
 30
0.0
 10
25.837743
 20
228.446933
 30
0.0
 10
24.192448
 20
227.317481
 30
0.0
  0
SPLINE
  5
105
100
AcDbEntity
  8
Layer_1
 62
1
100
AcDbSpline
 70
8
 71
3
 72
8
 73
4
 74
0
 40
0
 40
0
 40
0
 40
0
 40
1
 40
1
 40
1
 40
1
 10
24.192448
 20
227.317481
 30
0.0
 10
22.046805
 20
225.844554
 30
0.0
 10
20.249384
 20
223.901704
 30
0.0
 10
18.493090
 20
221.981098
 30
0.0
  0
SPLINE
  5
106
100
AcDbEntity
  8
Layer_1
 62
1
100
AcDbSpline
 70
8
 71
3
 72
8
 73
4
 74
0
 40
0
 40
0
 40
0
 40
0
 40
1
 40
1
 40
1
 40
1
 10
18.493090
 20
221.981098
 30
0.0
 10
16.905086
 20
220.244526
 30
0.0
 10
15.628019
 20
218.246629
 30
0.0
 10
14.146932
 20
216.418016
 30
0.0
  0
SPLINE
  5
107
100
AcDbEntity
  8
Layer_1
 62
1
100
AcDbSpline
 70
8
 71
3
 72
8
 73
4
 74
0
 40
0
 40
0
 40
0
 40
0
 40
1
 40
1
 40
1
 40
1
 10
14.146932
 20
216.418016
 30
0.0
 10
12.960265
 20
214.952907
 30
0.0
 10
11.872592
 20
213.389277
 30
0.0
 10
10.510232
 20
212.085935
 30
0.0
  0
SPLINE
  5
108
100
AcDbEntity
  8
Layer_1
 62
1
100
AcDbSpline
 70
8
 71
3
 72
8
 73
4
 74
0
 40
0
 40
0
 40
0
 40
0
 40
1
 40
1
 40
1
 40
1
 10
10.510232
 20
212.085935
 30
0.0
 10
8.927347
 20
210.571622
 30
0.0
 10
6.979505
 20
209.487676
 30
0.0
 10
5.294843
 20
208.087468
 30
0.0
  0
SPLINE
  5
109
100
AcDbEntity
  8
Layer_1
 62
1
100
AcDbSpline
 70
8
 71
3
 72
8
 73
4
 74
0
 40
0
 40
0
 40
0
 40
0
 40
1
 40
1
 40
1
 40
1
 10
5.294843
 20
208.087468
 30
0.0
 10
4.095715
 20
207.090812
 30
0.0
 10
2.354375
 20
206.422291
 30
0.0
 10
1.817918
 20
204.958240
 30
0.0
  0
SPLINE
  5
10a
100
AcDbEntity
  8
Layer_1
 62
1
100
AcDbSpline
 70
8
 71
3
 72
8
 73
4
 74
0
 40
0
 40
0
 40
0
 40
0
 40
1
 40
1
 40
1
 40
1
 10
1.817918
 20
204.958240
 30
0.0
 10
1.375238
 20
203.750117
 30
0.0
 10
1.959726
 20
202.362980
 30
0.0
 10
2.339457
 20
201.133618
 30
0.0
  0
SPLINE
  5
10b
100
AcDbEntity
  8
Layer_1
 62
1
100
AcDbSpline
 70
8
 71
3
 72
8
 73
4
 74
0
 40
0
 40
0
 40
0
 40
0
 40
1
 40
1
 40
1
 40
1
 10
2.339457
 20
201.133618
 30
0.0
 10
2.683632
 20
200.019365
 30
0.0
 10
3.264213
 20
198.979365
 30
0.0
 10
3.904073
 20
198.004380
 30
0.0
  0
SPLINE
  5
10c
100
AcDbEntity
  8
Layer_1
 62
1
100
AcDbSpline
 70
8
 71
3
 72
8
 73
4
 74
0
 40
0
 40
0
 40
0
 40
0
 40
1
 40
1
 40
1
 40
1
 10
3.904073
 20
198.004380
 30
0.0
 10
5.190488
 20
196.044210
 30
0.0
 10
6.642540
 20
194.139380
 30
0.0
 10
8.424077
 20
192.615150
 30
0.0
  0
SPLINE
  5
10d
100
AcDbEntity
  8
Layer_1
 62
1
100
AcDbSpline
 70
8
 71
3
 72
8
 73
4
 74
0
 40
0
 40
0
 40
0
 40
0
 40
1
 40
1
 40
1
 40
1
 10
8.424077
 20
192.615150
 30
0.0
 10
10.952948
 20
190.451530
 30
0.0
 10
14.247040
 20
189.366980
 30
0.0
 10
16.974696
 20
187.460060
 30
0.0
  0
SPLINE
  5
10e
100
AcDbEntity
  8
Layer_1
 62
1
100
AcDbSpline
 70
8
 71
3
 72
8
 73
4
 74
0
 40
0
 40
0
 40
0
 40
0
 40
1
 40
1
 40
1
 40
1
 10
16.974696
 20
187.460060
 30
0.0
 10
19.474313
 20
185.712560
 30
0.0
 10
22.188518
 20
184.097770
 30
0.0
 10
24.102394
 20
181.723130
 30
0.0
  0
SPLINE
  5
10f
100
AcDbEntity
  8
Layer_1
 62
1
100
AcDbSpline
 70
8
 71
3
 72
8
 73
4
 74
0
 40
0
 40
0
 40
0
 40
0
 40
1
 40
1
 40
1
 40
1
 10
24.102394
 20
181.723130
 30
0.0
 10
24.996835
 20
180.613350
 30
0.0
 10
25.546737
 20
179.244850
 30
0.0
 10
26.014704
 20
177.898510
 30
0.0
  0
SPLINE
  5
110
100
AcDbEntity
  8
Layer_1
 62
1
100
AcDbSpline
 70
8
 71
3
 72
8
 73
4
 74
0
 40
0
 40
0
 40
0
 40
0
 40
1
 40
1
 40
1
 40
1
 10
26.014704
 20
177.898510
 30
0.0
 10
26.481122
 20
176.556620
 30
0.0
 10
26.793607
 20
175.143950
 30
0.0
 10
26.883933
 20
173.726190
 30
0.0
  0
SPLINE
  5
111
100
AcDbEntity
  8
Layer_1
 62
1
100
AcDbSpline
 70
8
 71
3
 72
8
 73
4
 74
0
 40
0
 40
0
 40
0
 40
0
 40
1
 40
1
 40
1
 40
1
 10
26.883933
 20
173.726190
 30
0.0
 10
27.099983
 20
170.335050
 30
0.0
 10
26.516076
 20
166.934200
 30
0.0
 10
26.088116
 20
163.563240
 30
0.0
  0
SPLINE
  5
112
100
AcDbEntity
  8
Layer_1
 62
1
100
AcDbSpline
 70
8
 71
3
 72
8
 73
4
 74
0
 40
0
 40
0
 40
0
 40
0
 40
1
 40
1
 40
1
 40
1
 10
26.088116
 20
163.563240
 30
0.0
 10
25.700506
 20
160.510100
 30
0.0
 10
25.042386
 20
157.497310
 30
0.0
 10
24.485931
 20
154.470390
 30
0.0
  0
SPLINE
  5
113
100
AcDbEntity
  8
Layer_1
 62
1
100
AcDbSpline
 70
8
 71
3
 72
8
 73
4
 74
0
 40
0
 40
0
 40
0
 40
0
 40
1
 40
1
 40
1
 40
1
 10
24.485931
 20
154.470390
 30
0.0
 10
23.984543
 20
151.743020
 30
0.0
 10
23.289009
 20
149.048200
 30
0.0
 10
22.921316
 20
146.299610
 30
0.0
  0
SPLINE
  5
114
100
AcDbEntity
  8
Layer_1
 62
1
100
AcDbSpline
 70
8
 71
3
 72
8
 73
4
 74
0
 40
0
 40
0
 40
0
 40
0
 40
1
 40
1
 40
1
 40
1
 10
22.921316
 20
146.299610
 30
0.0
 10
22.320221
 20
141.806280
 30
0.0
 10
21.561662
 20
137.261890
 30
0.0
 10
21.878236
 20
132.739600
 30
0.0
  0
SPLINE
  5
115
100
AcDbEntity
  8
Layer_1
 62
1
100
AcDbSpline
 70
8
 71
3
 72
8
 73
4
 74
0
 40
0
 40
0
 40
0
 40
0
 40
1
 40
1
 40
1
 40
1
 10
21.878236
 20
132.739600
 30
0.0
 10
22.085409
 20
129.780110
 30
0.0
 10
23.083375
 20
126.928490
 30
0.0
 10
23.790544
 20
124.047280
 30
0.0
  0
SPLINE
  5
116
100
AcDbEntity
  8
Layer_1
 62
1
100
AcDbSpline
 70
8
 71
3
 72
8
 73
4
 74
0
 40
0
 40
0
 40
0
 40
0
 40
1
 40
1
 40
1
 40
1
 10
23.790544
 20
124.047280
 30
0.0
 10
24.634950
 20
120.606920
 30
0.0
 10
25.365729
 20
117.121080
 30
0.0
 10
26.572085
 20
113.790350
 30
0.0
  0
SPLINE
  5
117
100
AcDbEntity
  8
Layer_1
 62
1
100
AcDbSpline
 70
8
 71
3
 72
8
 73
4
 74
0
 40
0
 40
0
 40
0
 40
0
 40
1
 40
1
 40
1
 40
1
 10
26.572085
 20
113.790350
 30
0.0
 10
28.417604
 20
108.694900
 30
0.0
 10
31.236113
 20
104.002630
 30
0.0
 10
33.352092
 20
99.013420
 30
0.0
  0
SPLINE
  5
118
100
AcDbEntity
  8
Layer_1
 62
1
100
AcDbSpline
 70
8
 71
3
 72
8
 73
4
 74
0
 40
0
 40
0
 40
0
 40
0
 40
1
 40
1
 40
1
 40
1
 10
33.352092
 20
99.013420
 30
0.0
 10
34.347891
 20
96.665450
 30
0.0
 10
35.406711
 20
94.330340
 30
0.0
 10
36.133633
 20
91.885720
 30
0.0
  0
SPLINE
  5
119
100
AcDbEntity
  8
Layer_1
 62
1
100
AcDbSpline
 70
8
 71
3
 72
8
 73
4
 74
0
 40
0
 40
0
 40
0
 40
0
 40
1
 40
1
 40
1
 40
1
 10
36.133633
 20
91.885720
 30
0.0
 10
37.264151
 20
88.083820
 30
0.0
 10
38.088047
 20
84.175360
 30
0.0
 10
38.567481
 20
80.238020
 30
0.0
  0
SPLINE
  5
11a
100
AcDbEntity
  8
Layer_1
 62
1
100
AcDbSpline
 70
8
 71
3
 72
8
 73
4
 74
0
 40
0
 40
0
 40
0
 40
0
 40
1
 40
1
 40
1
 40
1
 10
38.567481
 20
80.238020
 30
0.0
 10
38.952980
 20
77.072110
 30
0.0
 10
38.965415
 20
73.865360
 30
0.0
 10
38.915171
 20
70.676470
 30
0.0
  0
SPLINE
  5
11b
100
AcDbEntity
  8
Layer_1
 62
1
100
AcDbSpline
 70
8
 71
3
 72
8
 73
4
 74
0
 40
0
 40
0
 40
0
 40
0
 40
1
 40
1
 40
1
 40
1
 10
38.915171
 20
70.676470
 30
0.0
 10
38.820921
 20
64.694720
 30
0.0
 10
38.079715
 20
58.740620
 30
0.0
 10
37.698248
 20
52.770310
 30
0.0
  0
SPLINE
  5
11c
100
AcDbEntity
  8
Layer_1
 62
1
100
AcDbSpline
 70
8
 71
3
 72
8
 73
4
 74
0
 40
0
 40
0
 40
0
 40
0
 40
1
 40
1
 40
1
 40
1
 10
37.698248
 20
52.770310
 30
0.0
 10
37.265154
 20
45.992000
 30
0.0
 10
37.553649
 20
39.137240
 30
0.0
 10
36.481324
 20
32.430290
 30
0.0
  0
SPLINE
  5
11d
100
AcDbEntity
  8
Layer_1
 62
1
100
AcDbSpline
 70
8
 71
3
 72
8
 73
4
 74
0
 40
0
 40
0
 40
0
 40
0
 40
1
 40
1
 40
1
 40
1
 10
36.481324
 20
32.430290
 30
0.0
 10
36.301578
 20
31.306060
 30
0.0
 10
36.050744
 20
30.177830
 30
0.0
 10
35.612092
 20
29.127210
 30
0.0
  0
SPLINE
  5
11e
100
AcDbEntity
  8
Layer_1
 62
1
100
AcDbSpline
 70
8
 71
3
 72
8
 73
4
 74
0
 40
0
 40
0
 40
0
 40
0
 40
1
 40
1
 40
1
 40
1
 10
35.612092
 20
29.127210
 30
0.0
 10
35.041558
 20
27.760720
 30
0.0
 10
34.330441
 20
26.414190
 30
0.0
 10
33.352092
 20
25.302600
 30
0.0
  0
SPLINE
  5
11f
100
AcDbEntity
  8
Layer_1
 62
1
100
AcDbSpline
 70
8
 71
3
 72
8
 73
4
 74
0
 40
0
 40
0
 40
0
 40
0
 40
1
 40
1
 40
1
 40
1
 10
33.352092
 20
25.302600
 30
0.0
 10
32.915565
 20
24.806620
 30
0.0
 10
32.326366
 20
24.467960
 30
0.0
 10
31.787474
 20
24.085670
 30
0.0
  0
SPLINE
  5
120
100
AcDbEntity
  8
Layer_1
 62
1
100
AcDbSpline
 70
8
 71
3
 72
8
 73
4
 74
0
 40
0
 40
0
 40
0
 40
0
 40
1
 40
1
 40
1
 40
1
 10
31.787474
 20
24.085670
 30
0.0
 10
30.043828
 20
22.848730
 30
0.0
 10
28.004412
 20
22.019600
 30
0.0
 10
26.398240
 20
20.608740
 30
0.0
  0
SPLINE
  5
121
100
AcDbEntity
  8
Layer_1
 62
1
100
AcDbSpline
 70
8
 71
3
 72
8
 73
4
 74
0
 40
0
 40
0
 40
0
 40
0
 40
1
 40
1
 40
1
 40
1
 10
26.398240
 20
20.608740
 30
0.0
 10
25.656825
 20
19.957480
 30
0.0
 10
25.017993
 20
19.179850
 30
0.0
 10
24.485931
 20
18.348740
 30
0.0
  0
SPLINE
  5
122
100
AcDbEntity
  8
Layer_1
 62
1
100
AcDbSpline
 70
8
 71
3
 72
8
 73
4
 74
0
 40
0
 40
0
 40
0
 40
0
 40
1
 40
1
 40
1
 40
1
 10
24.485931
 20
18.348740
 30
0.0
 10
23.968753
 20
17.540880
 30
0.0
 10
23.476758
 20
16.677500
 30
0.0
 10
23.269006
 20
15.741040
 30
0.0
  0
SPLINE
  5
123
100
AcDbEntity
  8
Layer_1
 62
1
100
AcDbSpline
 70
8
 71
3
 72
8
 73
4
 74
0
 40
0
 40
0
 40
0
 40
0
 40
1
 40
1
 40
1
 40
1
 10
23.269006
 20
15.741040
 30
0.0
 10
23.055644
 20
14.779300
 30
0.0
 10
23.000713
 20
13.733550
 30
0.0
 10
23.269006
 20
12.785660
 30
0.0
  0
SPLINE
  5
124
100
AcDbEntity
  8
Layer_1
 62
1
100
AcDbSpline
 70
8
 71
3
 72
8
 73
4
 74
0
 40
0
 40
0
 40
0
 40
0
 40
1
 40
1
 40
1
 40
1
 10
23.269006
 20
12.785660
 30
0.0
 10
23.509907
 20
11.934550
 30
0.0
 10
24.056122
 20
11.172210
 30
0.0
 10
24.659777
 20
10.525660
 30
0.0
  0
SPLINE
  5
125
100
AcDbEntity
  8
Layer_1
 62
1
100
AcDbSpline
 70
8
 71
3
 72
8
 73
4
 74
0
 40
0
 40
0
 40
0
 40
0
 40
1
 40
1
 40
1
 40
1
 10
24.659777
 20
10.525660
 30
0.0
 10
25.340166
 20
9.796920
 30
0.0
 10
26.142730
 20
9.086840
 30
0.0
 10
27.093624
 20
8.787190
 30
0.0
  0
SPLINE
  5
126
100
AcDbEntity
  8
Layer_1
 62
1
100
AcDbSpline
 70
8
 71
3
 72
8
 73
4
 74
0
 40
0
 40
0
 40
0
 40
0
 40
1
 40
1
 40
1
 40
1
 10
27.093624
 20
8.787190
 30
0.0
 10
32.786653
 20
6.993190
 30
0.0
 10
39.496305
 20
6.650060
 30
0.0
 10
44.999791
 20
8.961040
 30
0.0
  0
SPLINE
  5
127
100
AcDbEntity
  8
Layer_1
 62
1
100
AcDbSpline
 70
8
 71
3
 72
8
 73
4
 74
0
 40
0
 40
0
 40
0
 40
0
 40
1
 40
1
 40
1
 40
1
 10
44.999791
 20
8.961040
 30
0.0
 10
46.057639
 20
9.405240
 30
0.0
 10
46.809982
 20
10.431870
 30
0.0
 10
47.433639
 20
11.394890
 30
0.0
  0
SPLINE
  5
128
100
AcDbEntity
  8
Layer_1
 62
1
100
AcDbSpline
 70
8
 71
3
 72
8
 73
4
 74
0
 40
0
 40
0
 40
0
 40
0
 40
1
 40
1
 40
1
 40
1
 10
47.433639
 20
11.394890
 30
0.0
 10
48.141500
 20
12.487940
 30
0.0
 10
48.378355
 20
13.822200
 30
0.0
 10
48.824409
 20
15.045660
 30
0.0
  0
SPLINE
  5
129
100
AcDbEntity
  8
Layer_1
 62
1
100
AcDbSpline
 70
8
 71
3
 72
8
 73
4
 74
0
 40
0
 40
0
 40
0
 40
0
 40
1
 40
1
 40
1
 40
1
 10
48.824409
 20
15.045660
 30
0.0
 10
55.340382
 20
32.917980
 30
0.0
 10
48.953993
 20
72.707810
 30
0.0
 10
67.599810
 20
68.938010
 30
0.0
  0
SPLINE
  5
12a
100
AcDbEntity
  8
Layer_1
 62
1
100
AcDbSpline
 70
8
 71
3
 72
8
 73
4
 74
0
 40
0
 40
0
 40
0
 40
0
 40
1
 40
1
 40
1
 40
1
 10
67.599810
 20
68.938010
 30
0.0
 10
70.274821
 20
68.397180
 30
0.0
 10
67.195477
 20
63.493850
 30
0.0
 10
67.078270
 20
60.767230
 30
0.0
  0
SPLINE
  5
12b
100
AcDbEntity
  8
Layer_1
 62
1
100
AcDbSpline
 70
8
 71
3
 72
8
 73
4
 74
0
 40
0
 40
0
 40
0
 40
0
 40
1
 40
1
 40
1
 40
1
 10
67.078270
 20
60.767230
 30
0.0
 10
66.943186
 20
57.624750
 30
0.0
 10
66.698080
 20
54.474130
 30
0.0
 10
66.869027
 20
51.333390
 30
0.0
  0
SPLINE
  5
12c
100
AcDbEntity
  8
Layer_1
 62
1
100
AcDbSpline
 70
8
 71
3
 72
8
 73
4
 74
0
 40
0
 40
0
 40
0
 40
0
 40
1
 40
1
 40
1
 40
1
 10
66.869027
 20
51.333390
 30
0.0
 10
66.922187
 20
50.356720
 30
0.0
 10
67.107846
 20
49.391570
 30
0.0
 10
67.252116
 20
48.424150
 30
0.0
  0
SPLINE
  5
12d
100
AcDbEntity
  8
Layer_1
 62
1
100
AcDbSpline
 70
8
 71
3
 72
8
 73
4
 74
0
 40
0
 40
0
 40
0
 40
0
 40
1
 40
1
 40
1
 40
1
 10
67.252116
 20
48.424150
 30
0.0
 10
67.408090
 20
47.378250
 30
0.0
 10
67.558322
 20
46.330220
 30
0.0
 10
67.773654
 20
45.294910
 30
0.0
  0
SPLINE
  5
12e
100
AcDbEntity
  8
Layer_1
 62
1
100
AcDbSpline
 70
8
 71
3
 72
8
 73
4
 74
0
 40
0
 40
0
 40
0
 40
0
 40
1
 40
1
 40
1
 40
1
 10
67.773654
 20
45.294910
 30
0.0
 10
68.065571
 20
43.891380
 30
0.0
 10
68.375668
 20
42.486640
 30
0.0
 10
68.816734
 20
41.122610
 30
0.0
  0
SPLINE
  5
12f
100
AcDbEntity
  8
Layer_1
 62
1
100
AcDbSpline
 70
8
 71
3
 72
8
 73
4
 74
0
 40
0
 40
0
 40
0
 40
0
 40
1
 40
1
 40
1
 40
1
 10
68.816734
 20
41.122610
 30
0.0
 10
69.296797
 20
39.637980
 30
0.0
 10
69.923658
 20
38.203250
 30
0.0
 10
70.555195
 20
36.776450
 30
0.0
  0
SPLINE
  5
130
100
AcDbEntity
  8
Layer_1
 62
1
100
AcDbSpline
 70
8
 71
3
 72
8
 73
4
 74
0
 40
0
 40
0
 40
0
 40
0
 40
1
 40
1
 40
1
 40
1
 10
70.555195
 20
36.776450
 30
0.0
 10
71.204929
 20
35.308540
 30
0.0
 10
71.734048
 20
33.755690
 30
0.0
 10
72.662493
 20
32.446150
 30
0.0
  0
SPLINE
  5
131
100
AcDbEntity
  8
Layer_1
 62
1
100
AcDbSpline
 70
8
 71
3
 72
8
 73
4
 74
0
 40
0
 40
0
 40
0
 40
0
 40
1
 40
1
 40
1
 40
1
 10
72.662493
 20
32.446150
 30
0.0
 10
73.704555
 20
30.976350
 30
0.0
 10
75.099049
 20
29.779430
 30
0.0
 10
76.465970
 20
28.605670
 30
0.0
  0
SPLINE
  5
132
100
AcDbEntity
  8
Layer_1
 62
1
100
AcDbSpline
 70
8
 71
3
 72
8
 73
4
 74
0
 40
0
 40
0
 40
0
 40
0
 40
1
 40
1
 40
1
 40
1
 10
76.465970
 20
28.605670
 30
0.0
 10
78.259909
 20
27.065230
 30
0.0
 10
82.864474
 20
26.703490
 30
0.0
 10
82.202898
 20
24.433360
 30
0.0
  0
SPLINE
  5
133
100
AcDbEntity
  8
Layer_1
 62
1
100
AcDbSpline
 70
8
 71
3
 72
8
 73
4
 74
0
 40
0
 40
0
 40
0
 40
0
 40
1
 40
1
 40
1
 40
1
 10
82.202898
 20
24.433360
 30
0.0
 10
80.887117
 20
19.918400
 30
0.0
 10
72.774480
 20
24.245700
 30
0.0
 10
68.121348
 20
23.564130
 30
0.0
  0
SPLINE
  5
134
100
AcDbEntity
  8
Layer_1
 62
1
100
AcDbSpline
 70
8
 71
3
 72
8
 73
4
 74
0
 40
0
 40
0
 40
0
 40
0
 40
1
 40
1
 40
1
 40
1
 10
68.121348
 20
23.564130
 30
0.0
 10
66.355035
 20
23.305410
 30
0.0
 10
64.569950
 20
22.993680
 30
0.0
 10
62.905959
 20
22.347200
 30
0.0
  0
SPLINE
  5
135
100
AcDbEntity
  8
Layer_1
 62
1
100
AcDbSpline
 70
8
 71
3
 72
8
 73
4
 74
0
 40
0
 40
0
 40
0
 40
0
 40
1
 40
1
 40
1
 40
1
 10
62.905959
 20
22.347200
 30
0.0
 10
61.264275
 20
21.709390
 30
0.0
 10
59.678909
 20
20.854210
 30
0.0
 10
58.299538
 20
19.759100
 30
0.0
  0
SPLINE
  5
136
100
AcDbEntity
  8
Layer_1
 62
1
100
AcDbSpline
 70
8
 71
3
 72
8
 73
4
 74
0
 40
0
 40
0
 40
0
 40
0
 40
1
 40
1
 40
1
 40
1
 10
58.299538
 20
19.759100
 30
0.0
 10
57.862152
 20
19.411850
 30
0.0
 10
57.441408
 20
19.010140
 30
0.0
 10
57.169033
 20
18.522590
 30
0.0
  0
SPLINE
  5
137
100
AcDbEntity
  8
Layer_1
 62
1
100
AcDbSpline
 70
8
 71
3
 72
8
 73
4
 74
0
 40
0
 40
0
 40
0
 40
0
 40
1
 40
1
 40
1
 40
1
 10
57.169033
 20
18.522590
 30
0.0
 10
56.963278
 20
18.154290
 30
0.0
 10
56.879854
 20
17.723460
 30
0.0
 10
56.821339
 20
17.305660
 30
0.0
  0
SPLINE
  5
138
100
AcDbEntity
  8
Layer_1
 62
1
100
AcDbSpline
 70
8
 71
3
 72
8
 73
4
 74
0
 40
0
 40
0
 40
0
 40
0
 40
1
 40
1
 40
1
 40
1
 10
56.821339
 20
17.305660
 30
0.0
 10
56.724889
 20
16.617000
 30
0.0
 10
56.699798
 20
15.904190
 30
0.0
 10
56.821339
 20
15.219510
 30
0.0
  0
SPLINE
  5
139
100
AcDbEntity
  8
Layer_1
 62
1
100
AcDbSpline
 70
8
 71
3
 72
8
 73
4
 74
0
 40
0
 40
0
 40
0
 40
0
 40
1
 40
1
 40
1
 40
1
 10
56.821339
 20
15.219510
 30
0.0
 10
56.927007
 20
14.624240
 30
0.0
 10
57.196015
 20
14.067260
 30
0.0
 10
57.445590
 20
13.516610
 30
0.0
  0
SPLINE
  5
13a
100
AcDbEntity
  8
Layer_1
 62
1
100
AcDbSpline
 70
8
 71
3
 72
8
 73
4
 74
0
 40
0
 40
0
 40
0
 40
0
 40
1
 40
1
 40
1
 40
1
 10
57.445590
 20
13.516610
 30
0.0
 10
57.674779
 20
13.010940
 30
0.0
 10
57.922760
 20
12.507750
 30
0.0
 10
58.243685
 20
12.054710
 30
0.0
  0
SPLINE
  5
13b
100
AcDbEntity
  8
Layer_1
 62
1
100
AcDbSpline
 70
8
 71
3
 72
8
 73
4
 74
0
 40
0
 40
0
 40
0
 40
0
 40
1
 40
1
 40
1
 40
1
 10
58.243685
 20
12.054710
 30
0.0
 10
58.685179
 20
11.431470
 30
0.0
 10
59.194827
 20
10.846520
 30
0.0
 10
59.776725
 20
10.351810
 30
0.0
  0
SPLINE
  5
13c
100
AcDbEntity
  8
Layer_1
 62
1
100
AcDbSpline
 70
8
 71
3
 72
8
 73
4
 74
0
 40
0
 40
0
 40
0
 40
0
 40
1
 40
1
 40
1
 40
1
 10
59.776725
 20
10.351810
 30
0.0
 10
60.511526
 20
9.727110
 30
0.0
 10
61.331841
 20
9.184700
 30
0.0
 10
62.210575
 20
8.787190
 30
0.0
  0
SPLINE
  5
13d
100
AcDbEntity
  8
Layer_1
 62
1
100
AcDbSpline
 70
8
 71
3
 72
8
 73
4
 74
0
 40
0
 40
0
 40
0
 40
0
 40
1
 40
1
 40
1
 40
1
 10
62.210575
 20
8.787190
 30
0.0
 10
62.979324
 20
8.439440
 30
0.0
 10
63.809717
 20
8.214990
 30
0.0
 10
64.644423
 20
8.091810
 30
0.0
  0
SPLINE
  5
13e
100
AcDbEntity
  8
Layer_1
 62
1
100
AcDbSpline
 70
8
 71
3
 72
8
 73
4
 74
0
 40
0
 40
0
 40
0
 40
0
 40
1
 40
1
 40
1
 40
1
 10
64.644423
 20
8.091810
 30
0.0
 10
72.056781
 20
6.997920
 30
0.0
 10
79.627281
 20
7.742720
 30
0.0
 10
87.119899
 20
7.760480
 30
0.0
  0
SPLINE
  5
13f
100
AcDbEntity
  8
Layer_1
 62
1
100
AcDbSpline
 70
8
 71
3
 72
8
 73
4
 74
0
 40
0
 40
0
 40
0
 40
0
 40
1
 40
1
 40
1
 40
1
 10
87.119899
 20
7.760480
 30
0.0
 10
106.871000
 20
7.807280
 30
0.0
 10
126.623800
 20
8.202910
 30
0.0
 10
146.362120
 20
8.914700
 30
0.0
  0
SPLINE
  5
140
100
AcDbEntity
  8
Layer_1
 62
1
100
AcDbSpline
 70
8
 71
3
 72
8
 73
4
 74
0
 40
0
 40
0
 40
0
 40
0
 40
1
 40
1
 40
1
 40
1
 10
146.362120
 20
8.914700
 30
0.0
 10
152.270580
 20
9.127770
 30
0.0
 10
158.224240
 20
8.993100
 30
0.0
 10
164.074490
 20
9.847430
 30
0.0
  0
SPLINE
  5
141
100
AcDbEntity
  8
Layer_1
 62
1
100
AcDbSpline
 70
8
 71
3
 72
8
 73
4
 74
0
 40
0
 40
0
 40
0
 40
0
 40
1
 40
1
 40
1
 40
1
 10
164.074490
 20
9.847430
 30
0.0
 10
167.143310
 20
10.295590
 30
0.0
 10
170.170500
 20
11.069760
 30
0.0
 10
173.117640
 20
12.035620
 30
0.0
  0
SPLINE
  5
142
100
AcDbEntity
  8
Layer_1
 62
1
100
AcDbSpline
 70
8
 71
3
 72
8
 73
4
 74
0
 40
0
 40
0
 40
0
 40
0
 40
1
 40
1
 40
1
 40
1
 10
173.117640
 20
12.035620
 30
0.0
 10
175.653210
 20
12.866590
 30
0.0
 10
178.067610
 20
14.033010
 30
0.0
 10
180.503010
 20
15.123190
 30
0.0
  0
SPLINE
  5
143
100
AcDbEntity
  8
Layer_1
 62
1
100
AcDbSpline
 70
8
 71
3
 72
8
 73
4
 74
0
 40
0
 40
0
 40
0
 40
0
 40
1
 40
1
 40
1
 40
1
 10
180.503010
 20
15.123190
 30
0.0
 10
182.769580
 20
16.137790
 30
0.0
 10
185.098270
 20
17.052960
 30
0.0
 10
187.224810
 20
18.335380
 30
0.0
  0
SPLINE
  5
144
100
AcDbEntity
  8
Layer_1
 62
1
100
AcDbSpline
 70
8
 71
3
 72
8
 73
4
 74
0
 40
0
 40
0
 40
0
 40
0
 40
1
 40
1
 40
1
 40
1
 10
187.224810
 20
18.335380
 30
0.0
 10
190.199920
 20
20.129530
 30
0.0
 10
193.096380
 20
22.134350
 30
0.0
 10
195.587710
 20
24.555820
 30
0.0
  0
SPLINE
  5
145
100
AcDbEntity
  8
Layer_1
 62
1
100
AcDbSpline
 70
8
 71
3
 72
8
 73
4
 74
0
 40
0
 40
0
 40
0
 40
0
 40
1
 40
1
 40
1
 40
1
 10
195.587710
 20
24.555820
 30
0.0
 10
197.175230
 20
26.098820
 30
0.0
 10
198.427220
 20
27.959560
 30
0.0
 10
199.701410
 20
29.769950
 30
0.0
  0
SPLINE
  5
146
100
AcDbEntity
  8
Layer_1
 62
1
100
AcDbSpline
 70
8
 71
3
 72
8
 73
4
 74
0
 40
0
 40
0
 40
0
 40
0
 40
1
 40
1
 40
1
 40
1
 10
199.701410
 20
29.769950
 30
0.0
 10
201.029260
 20
31.656590
 30
0.0
 10
202.448350
 20
33.524010
 30
0.0
 10
203.369660
 20
35.639150
 30
0.0
  0
SPLINE
  5
147
100
AcDbEntity
  8
Layer_1
 62
1
100
AcDbSpline
 70
8
 71
3
 72
8
 73
4
 74
0
 40
0
 40
0
 40
0
 40
0
 40
1
 40
1
 40
1
 40
1
 10
203.369660
 20
35.639150
 30
0.0
 10
204.027040
 20
37.148370
 30
0.0
 10
204.365590
 20
38.787070
 30
0.0
 10
204.653540
 20
40.407870
 30
0.0
  0
SPLINE
  5
148
100
AcDbEntity
  8
Layer_1
 62
1
100
AcDbSpline
 70
8
 71
3
 72
8
 73
4
 74
0
 40
0
 40
0
 40
0
 40
0
 40
1
 40
1
 40
1
 40
1
 10
204.653540
 20
40.407870
 30
0.0
 10
205.136680
 20
43.127320
 30
0.0
 10
205.141770
 20
45.910320
 30
0.0
 10
205.387200
 20
48.661430
 30
0.0
  0
SPLINE
  5
149
100
AcDbEntity
  8
Layer_1
 62
1
100
AcDbSpline
 70
8
 71
3
 72
8
 73
4
 74
0
 40
0
 40
0
 40
0
 40
0
 40
1
 40
1
 40
1
 40
1
 10
205.387200
 20
48.661430
 30
0.0
 10
205.589010
 20
50.923580
 30
0.0
 10
205.925490
 20
53.177610
 30
0.0
 10
205.994780
 20
55.447690
 30
0.0
  0
SPLINE
  5
14a
100
AcDbEntity
  8
Layer_1
 62
1
100
AcDbSpline
 70
8
 71
3
 72
8
 73
4
 74
0
 40
0
 40
0
 40
0
 40
0
 40
1
 40
1
 40
1
 40
1
 10
205.994780
 20
55.447690
 30
0.0
 10
206.094910
 20
58.727920
 30
0.0
 10
206.093280
 20
62.028960
 30
0.0
 10
205.716570
 20
65.289020
 30
0.0
  0
SPLINE
  5
14b
100
AcDbEntity
  8
Layer_1
 62
1
100
AcDbSpline
 70
8
 71
3
 72
8
 73
4
 74
0
 40
0
 40
0
 40
0
 40
0
 40
1
 40
1
 40
1
 40
1
 10
205.716570
 20
65.289020
 30
0.0
 10
205.346340
 20
68.492850
 30
0.0
 10
204.324040
 20
71.589650
 30
0.0
 10
203.776940
 20
74.768050
 30
0.0
  0
SPLINE
  5
14c
100
AcDbEntity
  8
Layer_1
 62
1
100
AcDbSpline
 70
8
 71
3
 72
8
 73
4
 74
0
 40
0
 40
0
 40
0
 40
0
 40
1
 40
1
 40
1
 40
1
 10
203.776940
 20
74.768050
 30
0.0
 10
202.866150
 20
80.059290
 30
0.0
 10
202.076410
 20
85.377100
 30
0.0
 10
201.543880
 20
90.719680
 30
0.0
  0
SPLINE
  5
14d
100
AcDbEntity
  8
Layer_1
 62
1
100
AcDbSpline
 70
8
 71
3
 72
8
 73
4
 74
0
 40
0
 40
0
 40
0
 40
0
 40
1
 40
1
 40
1
 40
1
 10
201.543880
 20
90.719680
 30
0.0
 10
201.081100
 20
95.362560
 30
0.0
 10
200.713740
 20
100.026600
 30
0.0
 10
200.709970
 20
104.692490
 30
0.0
  0
SPLINE
  5
14e
100
AcDbEntity
  8
Layer_1
 62
1
100
AcDbSpline
 70
8
 71
3
 72
8
 73
4
 74
0
 40
0
 40
0
 40
0
 40
0
 40
1
 40
1
 40
1
 40
1
 10
200.709970
 20
104.692490
 30
0.0
 10
200.707970
 20
106.681160
 30
0.0
 10
200.959390
 20
108.662140
 30
0.0
 10
201.055780
 20
110.648480
 30
0.0
  0
SPLINE
  5
14f
100
AcDbEntity
  8
Layer_1
 62
1
100
AcDbSpline
 70
8
 71
3
 72
8
 73
4
 74
0
 40
0
 40
0
 40
0
 40
0
 40
1
 40
1
 40
1
 40
1
 10
201.055780
 20
110.648480
 30
0.0
 10
201.202070
 20
113.663040
 30
0.0
 10
201.108080
 20
116.692830
 30
0.0
 10
201.408640
 20
119.695930
 30
0.0
  0
SPLINE
  5
150
100
AcDbEntity
  8
Layer_1
 62
1
100
AcDbSpline
 70
8
 71
3
 72
8
 73
4
 74
0
 40
0
 40
0
 40
0
 40
0
 40
1
 40
1
 40
1
 40
1
 10
201.408640
 20
119.695930
 30
0.0
 10
201.602600
 20
121.633770
 30
0.0
 10
202.058050
 20
123.536740
 30
0.0
 10
202.342540
 20
125.463370
 30
0.0
  0
SPLINE
  5
151
100
AcDbEntity
  8
Layer_1
 62
1
100
AcDbSpline
 70
8
 71
3
 72
8
 73
4
 74
0
 40
0
 40
0
 40
0
 40
0
 40
1
 40
1
 40
1
 40
1
 10
202.342540
 20
125.463370
 30
0.0
 10
202.702390
 20
127.900340
 30
0.0
 10
202.818110
 20
130.376910
 30
0.0
 10
203.320130
 20
132.788610
 30
0.0
  0
SPLINE
  5
152
100
AcDbEntity
  8
Layer_1
 62
1
100
AcDbSpline
 70
8
 71
3
 72
8
 73
4
 74
0
 40
0
 40
0
 40
0
 40
0
 40
1
 40
1
 40
1
 40
1
 10
203.320130
 20
132.788610
 30
0.0
 10
204.035840
 20
136.226880
 30
0.0
 10
205.558550
 20
139.469490
 30
0.0
 10
206.209370
 20
142.920630
 30
0.0
  0
SPLINE
  5
153
100
AcDbEntity
  8
Layer_1
 62
1
100
AcDbSpline
 70
8
 71
3
 72
8
 73
4
 74
0
 40
0
 40
0
 40
0
 40
0
 40
1
 40
1
 40
1
 40
1
 10
206.209370
 20
142.920630
 30
0.0
 10
206.605260
 20
145.019960
 30
0.0
 10
206.895410
 20
147.165830
 30
0.0
 10
206.817290
 20
149.300730
 30
0.0
  0
SPLINE
  5
154
100
AcDbEntity
  8
Layer_1
 62
1
100
AcDbSpline
 70
8
 71
3
 72
8
 73
4
 74
0
 40
0
 40
0
 40
0
 40
0
 40
1
 40
1
 40
1
 40
1
 10
206.817290
 20
149.300730
 30
0.0
 10
206.738190
 20
151.461170
 30
0.0
 10
206.597710
 20
153.714000
 30
0.0
 10
205.731870
 20
155.694930
 30
0.0
  0
SPLINE
  5
155
100
AcDbEntity
  8
Layer_1
 62
1
100
AcDbSpline
 70
8
 71
3
 72
8
 73
4
 74
0
 40
0
 40
0
 40
0
 40
0
 40
1
 40
1
 40
1
 40
1
 10
205.731870
 20
155.694930
 30
0.0
 10
205.055190
 20
157.243090
 30
0.0
 10
203.913430
 20
158.600950
 30
0.0
 10
202.640240
 20
159.711660
 30
0.0
  0
SPLINE
  5
156
100
AcDbEntity
  8
Layer_1
 62
1
100
AcDbSpline
 70
8
 71
3
 72
8
 73
4
 74
0
 40
0
 40
0
 40
0
 40
0
 40
1
 40
1
 40
1
 40
1
 10
202.640240
 20
159.711660
 30
0.0
 10
202.033370
 20
160.241080
 30
0.0
 10
201.299760
 20
160.635240
 30
0.0
 10
200.543420
 20
160.911880
 30
0.0
  0
SPLINE
  5
157
100
AcDbEntity
  8
Layer_1
 62
1
100
AcDbSpline
 70
8
 71
3
 72
8
 73
4
 74
0
 40
0
 40
0
 40
0
 40
0
 40
1
 40
1
 40
1
 40
1
 10
200.543420
 20
160.911880
 30
0.0
 10
199.297450
 20
161.367610
 30
0.0
 10
197.953320
 20
161.703150
 30
0.0
 10
196.628630
 20
161.630010
 30
0.0
  0
SPLINE
  5
158
100
AcDbEntity
  8
Layer_1
 62
1
100
AcDbSpline
 70
8
 71
3
 72
8
 73
4
 74
0
 40
0
 40
0
 40
0
 40
0
 40
1
 40
1
 40
1
 40
1
 10
196.628630
 20
161.630010
 30
0.0
 10
194.597560
 20
161.517860
 30
0.0
 10
192.643500
 20
160.699490
 30
0.0
 10
190.784010
 20
159.874790
 30
0.0
  0
SPLINE
  5
159
100
AcDbEntity
  8
Layer_1
 62
1
100
AcDbSpline
 70
8
 71
3
 72
8
 73
4
 74
0
 40
0
 40
0
 40
0
 40
0
 40
1
 40
1
 40
1
 40
1
 10
190.784010
 20
159.874790
 30
0.0
 10
187.823500
 20
158.561780
 30
0.0
 10
184.813680
 20
157.084690
 30
0.0
 10
182.466380
 20
154.853370
 30
0.0
  0
SPLINE
  5
15a
100
AcDbEntity
  8
Layer_1
 62
1
100
AcDbSpline
 70
8
 71
3
 72
8
 73
4
 74
0
 40
0
 40
0
 40
0
 40
0
 40
1
 40
1
 40
1
 40
1
 10
182.466380
 20
154.853370
 30
0.0
 10
179.178920
 20
151.728340
 30
0.0
 10
176.896060
 20
147.624870
 30
0.0
 10
174.853000
 20
143.575290
 30
0.0
  0
SPLINE
  5
15b
100
AcDbEntity
  8
Layer_1
 62
1
100
AcDbSpline
 70
8
 71
3
 72
8
 73
4
 74
0
 40
0
 40
0
 40
0
 40
0
 40
1
 40
1
 40
1
 40
1
 10
174.853000
 20
143.575290
 30
0.0
 10
173.887670
 20
141.661900
 30
0.0
 10
173.187320
 20
139.603580
 30
0.0
 10
172.704600
 20
137.515540
 30
0.0
  0
SPLINE
  5
15c
100
AcDbEntity
  8
Layer_1
 62
1
100
AcDbSpline
 70
8
 71
3
 72
8
 73
4
 74
0
 40
0
 40
0
 40
0
 40
0
 40
1
 40
1
 40
1
 40
1
 10
172.704600
 20
137.515540
 30
0.0
 10
171.973880
 20
134.354750
 30
0.0
 10
171.801710
 20
131.083790
 30
0.0
 10
171.600660
 20
127.845870
 30
0.0
  0
SPLINE
  5
15d
100
AcDbEntity
  8
Layer_1
 62
1
100
AcDbSpline
 70
8
 71
3
 72
8
 73
4
 74
0
 40
0
 40
0
 40
0
 40
0
 40
1
 40
1
 40
1
 40
1
 10
171.600660
 20
127.845870
 30
0.0
 10
171.393980
 20
124.517280
 30
0.0
 10
171.482910
 20
121.176380
 30
0.0
 10
171.497110
 20
117.841410
 30
0.0
  0
SPLINE
  5
15e
100
AcDbEntity
  8
Layer_1
 62
1
100
AcDbSpline
 70
8
 71
3
 72
8
 73
4
 74
0
 40
0
 40
0
 40
0
 40
0
 40
1
 40
1
 40
1
 40
1
 10
171.497110
 20
117.841410
 30
0.0
 10
171.512610
 20
114.200300
 30
0.0
 10
171.576910
 20
110.558880
 30
0.0
 10
171.703170
 20
106.919920
 30
0.0
  0
SPLINE
  5
15f
100
AcDbEntity
  8
Layer_1
 62
1
100
AcDbSpline
 70
8
 71
3
 72
8
 73
4
 74
0
 40
0
 40
0
 40
0
 40
0
 40
1
 40
1
 40
1
 40
1
 10
171.703170
 20
106.919920
 30
0.0
 10
171.913170
 20
100.865680
 30
0.0
 10
172.297660
 20
94.818720
 30
0.0
 10
172.620160
 20
88.769430
 30
0.0
  0
SPLINE
  5
160
100
AcDbEntity
  8
Layer_1
 62
1
100
AcDbSpline
 70
8
 71
3
 72
8
 73
4
 74
0
 40
0
 40
0
 40
0
 40
0
 40
1
 40
1
 40
1
 40
1
 10
172.620160
 20
88.769430
 30
0.0
 10
172.858230
 20
84.303840
 30
0.0
 10
172.909120
 20
79.822650
 30
0.0
 10
173.371660
 20
75.374700
 30
0.0
  0
SPLINE
  5
161
100
AcDbEntity
  8
Layer_1
 62
1
100
AcDbSpline
 70
8
 71
3
 72
8
 73
4
 74
0
 40
0
 40
0
 40
0
 40
0
 40
1
 40
1
 40
1
 40
1
 10
173.371660
 20
75.374700
 30
0.0
 10
173.659120
 20
72.610360
 30
0.0
 10
174.270260
 20
69.888270
 30
0.0
 10
174.627440
 20
67.132070
 30
0.0
  0
SPLINE
  5
162
100
AcDbEntity
  8
Layer_1
 62
1
100
AcDbSpline
 70
8
 71
3
 72
8
 73
4
 74
0
 40
0
 40
0
 40
0
 40
0
 40
1
 40
1
 40
1
 40
1
 10
174.627440
 20
67.132070
 30
0.0
 10
174.920730
 20
64.868850
 30
0.0
 10
175.032230
 20
62.583580
 30
0.0
 10
175.355600
 20
60.324460
 30
0.0
  0
SPLINE
  5
163
100
AcDbEntity
  8
Layer_1
 62
1
100
AcDbSpline
 70
8
 71
3
 72
8
 73
4
 74
0
 40
0
 40
0
 40
0
 40
0
 40
1
 40
1
 40
1
 40
1
 10
175.355600
 20
60.324460
 30
0.0
 10
175.581830
 20
58.743950
 30
0.0
 10
175.987410
 20
57.192150
 30
0.0
 10
176.202710
 20
55.610110
 30
0.0
  0
SPLINE
  5
164
100
AcDbEntity
  8
Layer_1
 62
1
100
AcDbSpline
 70
8
 71
3
 72
8
 73
4
 74
0
 40
0
 40
0
 40
0
 40
0
 40
1
 40
1
 40
1
 40
1
 10
176.202710
 20
55.610110
 30
0.0
 10
176.442950
 20
53.844790
 30
0.0
 10
176.608300
 20
52.067650
 30
0.0
 10
176.697600
 20
50.288300
 30
0.0
  0
SPLINE
  5
165
100
AcDbEntity
  8
Layer_1
 62
1
100
AcDbSpline
 70
8
 71
3
 72
8
 73
4
 74
0
 40
0
 40
0
 40
0
 40
0
 40
1
 40
1
 40
1
 40
1
 10
176.697600
 20
50.288300
 30
0.0
 10
176.746200
 20
49.320060
 30
0.0
 10
176.864130
 20
48.338630
 30
0.0
 10
176.719600
 20
47.380000
 30
0.0
  0
SPLINE
  5
166
100
AcDbEntity
  8
Layer_1
 62
1
100
AcDbSpline
 70
8
 71
3
 72
8
 73
4
 74
0
 40
0
 40
0
 40
0
 40
0
 40
1
 40
1
 40
1
 40
1
 10
176.719600
 20
47.380000
 30
0.0
 10
176.567840
 20
46.373450
 30
0.0
 10
176.377210
 20
45.305380
 30
0.0
 10
175.797190
 20
44.468870
 30
0.0
  0
SPLINE
  5
167
100
AcDbEntity
  8
Layer_1
 62
1
100
AcDbSpline
 70
8
 71
3
 72
8
 73
4
 74
0
 40
0
 40
0
 40
0
 40
0
 40
1
 40
1
 40
1
 40
1
 10
175.797190
 20
44.468870
 30
0.0
 10
175.324000
 20
43.786430
 30
0.0
 10
174.562430
 20
43.335380
 30
0.0
 10
173.836900
 20
42.931360
 30
0.0
  0
SPLINE
  5
168
100
AcDbEntity
  8
Layer_1
 62
1
100
AcDbSpline
 70
8
 71
3
 72
8
 73
4
 74
0
 40
0
 40
0
 40
0
 40
0
 40
1
 40
1
 40
1
 40
1
 10
173.836900
 20
42.931360
 30
0.0
 10
172.586630
 20
42.235130
 30
0.0
 10
171.176230
 20
41.866410
 30
0.0
 10
169.805630
 20
41.454870
 30
0.0
  0
SPLINE
  5
169
100
AcDbEntity
  8
Layer_1
 62
1
100
AcDbSpline
 70
8
 71
3
 72
8
 73
4
 74
0
 40
0
 40
0
 40
0
 40
0
 40
1
 40
1
 40
1
 40
1
 10
169.805630
 20
41.454870
 30
0.0
 10
168.424030
 20
41.040030
 30
0.0
 10
167.029450
 20
40.604060
 30
0.0
 10
165.594270
 20
40.458570
 30
0.0
  0
SPLINE
  5
16a
100
AcDbEntity
  8
Layer_1
 62
1
100
AcDbSpline
 70
8
 71
3
 72
8
 73
4
 74
0
 40
0
 40
0
 40
0
 40
0
 40
1
 40
1
 40
1
 40
1
 10
165.594270
 20
40.458570
 30
0.0
 10
164.530630
 20
40.350750
 30
0.0
 10
163.427900
 20
40.305520
 30
0.0
 10
162.388460
 20
40.555570
 30
0.0
  0
SPLINE
  5
16b
100
AcDbEntity
  8
Layer_1
 62
1
100
AcDbSpline
 70
8
 71
3
 72
8
 73
4
 74
0
 40
0
 40
0
 40
0
 40
0
 40
1
 40
1
 40
1
 40
1
 10
162.388460
 20
40.555570
 30
0.0
 10
160.852630
 20
40.925030
 30
0.0
 10
159.211120
 20
41.454730
 30
0.0
 10
158.104770
 20
42.582230
 30
0.0
  0
SPLINE
  5
16c
100
AcDbEntity
  8
Layer_1
 62
1
100
AcDbSpline
 70
8
 71
3
 72
8
 73
4
 74
0
 40
0
 40
0
 40
0
 40
0
 40
1
 40
1
 40
1
 40
1
 10
158.104770
 20
42.582230
 30
0.0
 10
157.922860
 20
42.767610
 30
0.0
 10
157.854460
 20
43.042480
 30
0.0
 10
157.784940
 20
43.292730
 30
0.0
  0
SPLINE
  5
16d
100
AcDbEntity
  8
Layer_1
 62
1
100
AcDbSpline
 70
8
 71
3
 72
8
 73
4
 74
0
 40
0
 40
0
 40
0
 40
0
 40
1
 40
1
 40
1
 40
1
 10
157.784940
 20
43.292730
 30
0.0
 10
157.380390
 20
44.748950
 30
0.0
 10
157.326570
 20
46.285530
 30
0.0
 10
157.246770
 20
47.794800
 30
0.0
  0
SPLINE
  5
16e
100
AcDbEntity
  8
Layer_1
 62
1
100
AcDbSpline
 70
8
 71
3
 72
8
 73
4
 74
0
 40
0
 40
0
 40
0
 40
0
 40
1
 40
1
 40
1
 40
1
 10
157.246770
 20
47.794800
 30
0.0
 10
157.154770
 20
49.533920
 30
0.0
 10
157.289470
 20
51.277650
 30
0.0
 10
157.316370
 20
53.018990
 30
0.0
  0
SPLINE
  5
16f
100
AcDbEntity
  8
Layer_1
 62
1
100
AcDbSpline
 70
8
 71
3
 72
8
 73
4
 74
0
 40
0
 40
0
 40
0
 40
0
 40
1
 40
1
 40
1
 40
1
 10
157.316370
 20
53.018990
 30
0.0
 10
157.368070
 20
56.367080
 30
0.0
 10
157.572340
 20
59.715360
 30
0.0
 10
157.492700
 20
63.062900
 30
0.0
  0
SPLINE
  5
170
100
AcDbEntity
  8
Layer_1
 62
1
100
AcDbSpline
 70
8
 71
3
 72
8
 73
4
 74
0
 40
0
 40
0
 40
0
 40
0
 40
1
 40
1
 40
1
 40
1
 10
157.492700
 20
63.062900
 30
0.0
 10
157.417400
 20
66.228390
 30
0.0
 10
157.170080
 20
69.389370
 30
0.0
 10
156.874510
 20
72.541930
 30
0.0
  0
SPLINE
  5
171
100
AcDbEntity
  8
Layer_1
 62
1
100
AcDbSpline
 70
8
 71
3
 72
8
 73
4
 74
0
 40
0
 40
0
 40
0
 40
0
 40
1
 40
1
 40
1
 40
1
 10
156.874510
 20
72.541930
 30
0.0
 10
156.557980
 20
75.918010
 30
0.0
 10
156.177070
 20
79.291390
 30
0.0
 10
155.638110
 20
82.639170
 30
0.0
  0
SPLINE
  5
172
100
AcDbEntity
  8
Layer_1
 62
1
100
AcDbSpline
 70
8
 71
3
 72
8
 73
4
 74
0
 40
0
 40
0
 40
0
 40
0
 40
1
 40
1
 40
1
 40
1
 10
155.638110
 20
82.639170
 30
0.0
 10
155.025750
 20
86.442880
 30
0.0
 10
154.378480
 20
90.254060
 30
0.0
 10
153.371380
 20
93.972790
 30
0.0
  0
SPLINE
  5
173
100
AcDbEntity
  8
Layer_1
 62
1
100
AcDbSpline
 70
8
 71
3
 72
8
 73
4
 74
0
 40
0
 40
0
 40
0
 40
0
 40
1
 40
1
 40
1
 40
1
 10
153.371380
 20
93.972790
 30
0.0
 10
152.213020
 20
98.250060
 30
0.0
 10
150.635020
 20
102.406930
 30
0.0
 10
149.044010
 20
106.542820
 30
0.0
  0
SPLINE
  5
174
100
AcDbEntity
  8
Layer_1
 62
1
100
AcDbSpline
 70
8
 71
3
 72
8
 73
4
 74
0
 40
0
 40
0
 40
0
 40
0
 40
1
 40
1
 40
1
 40
1
 10
149.044010
 20
106.542820
 30
0.0
 10
147.408700
 20
110.793870
 30
0.0
 10
145.780460
 20
115.068090
 30
0.0
 10
143.686280
 20
119.112840
 30
0.0
  0
SPLINE
  5
175
100
AcDbEntity
  8
Layer_1
 62
1
100
AcDbSpline
 70
8
 71
3
 72
8
 73
4
 74
0
 40
0
 40
0
 40
0
 40
0
 40
1
 40
1
 40
1
 40
1
 10
143.686280
 20
119.112840
 30
0.0
 10
141.460050
 20
123.412640
 30
0.0
 10
138.818370
 20
127.496100
 30
0.0
 10
136.061840
 20
131.476800
 30
0.0
  0
SPLINE
  5
176
100
AcDbEntity
  8
Layer_1
 62
1
100
AcDbSpline
 70
8
 71
3
 72
8
 73
4
 74
0
 40
0
 40
0
 40
0
 40
0
 40
1
 40
1
 40
1
 40
1
 10
136.061840
 20
131.476800
 30
0.0
 10
133.970110
 20
134.497460
 30
0.0
 10
131.953320
 20
137.636220
 30
0.0
 10
129.314780
 20
140.193130
 30
0.0
  0
SPLINE
  5
177
100
AcDbEntity
  8
Layer_1
 62
1
100
AcDbSpline
 70
8
 71
3
 72
8
 73
4
 74
0
 40
0
 40
0
 40
0
 40
0
 40
1
 40
1
 40
1
 40
1
 10
129.314780
 20
140.193130
 30
0.0
 10
127.451060
 20
141.999190
 30
0.0
 10
125.100220
 20
143.222970
 30
0.0
 10
123.011380
 20
144.763100
 30
0.0
  0
SPLINE
  5
178
100
AcDbEntity
  8
Layer_1
 62
1
100
AcDbSpline
 70
8
 71
3
 72
8
 73
4
 74
0
 40
0
 40
0
 40
0
 40
0
 40
1
 40
1
 40
1
 40
1
 10
123.011380
 20
144.763100
 30
0.0
 10
120.642460
 20
146.509730
 30
0.0
 10
118.396940
 20
148.428970
 30
0.0
 10
115.946900
 20
150.059850
 30
0.0
  0
SPLINE
  5
179
100
AcDbEntity
  8
Layer_1
 62
1
100
AcDbSpline
 70
8
 71
3
 72
8
 73
4
 74
0
 40
0
 40
0
 40
0
 40
0
 40
1
 40
1
 40
1
 40
1
 10
115.946900
 20
150.059850
 30
0.0
 10
113.214390
 20
151.878760
 30
0.0
 10
110.440680
 20
153.681300
 30
0.0
 10
107.456540
 20
155.048750
 30
0.0
  0
SPLINE
  5
17a
100
AcDbEntity
  8
Layer_1
 62
1
100
AcDbSpline
 70
8
 71
3
 72
8
 73
4
 74
0
 40
0
 40
0
 40
0
 40
0
 40
1
 40
1
 40
1
 40
1
 10
107.456540
 20
155.048750
 30
0.0
 10
104.042010
 20
156.613420
 30
0.0
 10
100.279310
 20
157.290510
 30
0.0
 10
96.789807
 20
158.679980
 30
0.0
  0
SPLINE
  5
17b
100
AcDbEntity
  8
Layer_1
 62
1
100
AcDbSpline
 70
8
 71
3
 72
8
 73
4
 74
0
 40
0
 40
0
 40
0
 40
0
 40
1
 40
1
 40
1
 40
1
 10
96.789807
 20
158.679980
 30
0.0
 10
94.934268
 20
159.418830
 30
0.0
 10
93.068593
 20
160.170870
 30
0.0
 10
91.342976
 20
161.176440
 30
0.0
  0
SPLINE
  5
17c
100
AcDbEntity
  8
Layer_1
 62
1
100
AcDbSpline
 70
8
 71
3
 72
8
 73
4
 74
0
 40
0
 40
0
 40
0
 40
0
 40
1
 40
1
 40
1
 40
1
 10
91.342976
 20
161.176440
 30
0.0
 10
89.891691
 20
162.022150
 30
0.0
 10
88.282043
 20
162.795480
 30
0.0
 10
87.257846
 20
164.126820
 30
0.0
  0
SPLINE
  5
17d
100
AcDbEntity
  8
Layer_1
 62
1
100
AcDbSpline
 70
8
 71
3
 72
8
 73
4
 74
0
 40
0
 40
0
 40
0
 40
0
 40
1
 40
1
 40
1
 40
1
 10
87.257846
 20
164.126820
 30
0.0
 10
85.357039
 20
166.597650
 30
0.0
 10
85.014792
 20
169.944160
 30
0.0
 10
83.909420
 20
172.858990
 30
0.0
  0
SPLINE
  5
17e
100
AcDbEntity
  8
Layer_1
 62
1
100
AcDbSpline
 70
8
 71
3
 72
8
 73
4
 74
0
 40
0
 40
0
 40
0
 40
0
 40
1
 40
1
 40
1
 40
1
 10
83.909420
 20
172.858990
 30
0.0
 10
82.763481
 20
175.880790
 30
0.0
 10
81.331957
 20
178.812810
 30
0.0
 10
80.505147
 20
181.937050
 30
0.0
  0
SPLINE
  5
17f
100
AcDbEntity
  8
Layer_1
 62
1
100
AcDbSpline
 70
8
 71
3
 72
8
 73
4
 74
0
 40
0
 40
0
 40
0
 40
0
 40
1
 40
1
 40
1
 40
1
 10
80.505147
 20
181.937050
 30
0.0
 10
79.525130
 20
185.640200
 30
0.0
 10
79.317575
 20
189.505830
 30
0.0
 10
78.689535
 20
193.284630
 30
0.0
  0
SPLINE
  5
180
100
AcDbEntity
  8
Layer_1
 62
1
100
AcDbSpline
 70
8
 71
3
 72
8
 73
4
 74
0
 40
0
 40
0
 40
0
 40
0
 40
1
 40
1
 40
1
 40
1
 10
78.689535
 20
193.284630
 30
0.0
 10
77.959546
 20
197.676845
 30
0.0
 10
77.527602
 20
202.135302
 30
0.0
 10
76.420018
 20
206.447806
 30
0.0
  0
SPLINE
  5
181
100
AcDbEntity
  8
Layer_1
 62
1
100
AcDbSpline
 70
8
 71
3
 72
8
 73
4
 74
0
 40
0
 40
0
 40
0
 40
0
 40
1
 40
1
 40
1
 40
1
 10
76.420018
 20
206.447806
 30
0.0
 10
75.842742
 20
208.695495
 30
0.0
 10
75.027959
 20
210.881055
 30
0.0
 10
74.150503
 20
213.029409
 30
0.0
  0
SPLINE
  5
182
100
AcDbEntity
  8
Layer_1
 62
1
100
AcDbSpline
 70
8
 71
3
 72
8
 73
4
 74
0
 40
0
 40
0
 40
0
 40
0
 40
1
 40
1
 40
1
 40
1
 10
74.150503
 20
213.029409
 30
0.0
 10
72.883818
 20
216.130750
 30
0.0
 10
71.798689
 20
219.390825
 30
0.0
 10
69.838423
 20
222.107471
 30
0.0
  0
SPLINE
  5
183
100
AcDbEntity
  8
Layer_1
 62
1
100
AcDbSpline
 70
8
 71
3
 72
8
 73
4
 74
0
 40
0
 40
0
 40
0
 40
0
 40
1
 40
1
 40
1
 40
1
 10
69.838423
 20
222.107471
 30
0.0
 10
68.366934
 20
224.146743
 30
0.0
 10
65.837240
 20
225.269686
 30
0.0
 10
64.391587
 20
227.327354
 30
0.0
  0
SPLINE
  5
184
100
AcDbEntity
  8
Layer_1
 62
1
100
AcDbSpline
 70
8
 71
3
 72
8
 73
4
 74
0
 40
0
 40
0
 40
0
 40
0
 40
1
 40
1
 40
1
 40
1
 10
64.391587
 20
227.327354
 30
0.0
 10
62.678304
 20
229.765952
 30
0.0
 10
62.139314
 20
232.855531
 30
0.0
 10
60.760362
 20
235.497612
 30
0.0
  0
SPLINE
  5
185
100
AcDbEntity
  8
Layer_1
 62
1
100
AcDbSpline
 70
8
 71
3
 72
8
 73
4
 74
0
 40
0
 40
0
 40
0
 40
0
 40
1
 40
1
 40
1
 40
1
 10
60.760362
 20
235.497612
 30
0.0
 10
59.001492
 20
238.867620
 30
0.0
 10
57.099985
 20
242.185479
 30
0.0
 10
54.859620
 20
245.256528
 30
0.0
  0
SPLINE
  5
186
100
AcDbEntity
  8
Layer_1
 62
1
100
AcDbSpline
 70
8
 71
3
 72
8
 73
4
 74
0
 40
0
 40
0
 40
0
 40
0
 40
1
 40
1
 40
1
 40
1
 10
54.859620
 20
245.256528
 30
0.0
 10
53.030985
 20
247.763186
 30
0.0
 10
49.833292
 20
249.369209
 30
0.0
 10
48.745078
 20
252.274898
 30
0.0
  0
SPLINE
  5
187
100
AcDbEntity
  8
Layer_1
 62
1
100
AcDbSpline
 70
8
 71
3
 72
8
 73
4
 74
0
 40
0
 40
0
 40
0
 40
0
 40
1
 40
1
 40
1
 40
1
 10
48.745100
 20
252.274941
 30
0.0
 10
48.746700
 20
252.279241
 30
0.0
 10
48.757370
 20
252.282441
 30
0.0
 10
48.753900
 20
252.285381
 30
0.0
  0
SPLINE
  5
188
100
AcDbEntity
  8
Layer_1
 62
1
100
AcDbSpline
 70
8
 71
3
 72
8
 73
4
 74
0
 40
0
 40
0
 40
0
 40
0
 40
1
 40
1
 40
1
 40
1
 10
48.753900
 20
252.285381
 30
0.0
 10
48.750400
 20
252.288381
 30
0.0
 10
48.743090
 20
252.279081
 30
0.0
 10
48.745000
 20
252.274981
 30
0.0
  0
LWPOLYLINE
  5
189
100
AcDbEntity
  8
Layer_1
 62
1
100
AcDbPolyline
 90
8
 70
1
 10
48.745078
 20
252.274898
 30
0.0
 10
48.745078
 20
252.274919
 30
0.0
 10
48.745100
 20
252.274919
 30
0.0
 10
48.745100
 20
252.274941
 30
0.0
 10
48.745055
 20
252.274981
 30
0.0
 10
48.745025
 20
252.274981
 30
0.0
 10
48.744995
 20
252.274981
 30
0.0
 10
48.744985
 20
252.274981
 30
0.0
  0
SPLINE
  5
18a
100
AcDbEntity
  8
Layer_1
 62
1
100
AcDbSpline
 70
8
 71
3
 72
8
 73
4
 74
0
 40
0
 40
0
 40
0
 40
0
 40
1
 40
1
 40
1
 40
1
 10
35.391549
 20
216.840273
 30
0.0
 10
33.095826
 20
216.813125
 30
0.0
 10
31.254613
 20
214.979501
 30
0.0
 10
31.275421
 20
212.741112
 30
0.0
  0
SPLINE
  5
18b
100
AcDbEntity
  8
Layer_1
 62
1
100
AcDbSpline
 70
8
 71
3
 72
8
 73
4
 74
0
 40
0
 40
0
 40
0
 40
0
 40
1
 40
1
 40
1
 40
1
 10
31.275421
 20
212.741112
 30
0.0
 10
31.296229
 20
210.502723
 30
0.0
 10
33.171206
 20
208.704110
 30
0.0
 10
35.467031
 20
208.720217
 30
0.0
  0
SPLINE
  5
18c
100
AcDbEntity
  8
Layer_1
 62
1
100
AcDbSpline
 70
8
 71
3
 72
8
 73
4
 74
0
 40
0
 40
0
 40
0
 40
0
 40
1
 40
1
 40
1
 40
1
 10
35.467031
 20
208.720217
 30
0.0
 10
37.762855
 20
208.736324
 30
0.0
 10
39.613316
 20
210.561075
 30
0.0
 10
39.603833
 20
212.799544
 30
0.0
  0
SPLINE
  5
18d
100
AcDbEntity
  8
Layer_1
 62
1
100
AcDbSpline
 70
8
 71
3
 72
8
 73
4
 74
0
 40
0
 40
0
 40
0
 40
0
 40
1
 40
1
 40
1
 40
1
 10
39.603833
 20
212.799544
 30
0.0
 10
39.594349
 20
215.038012
 30
0.0
 10
37.728500
 20
216.845626
 30
0.0
 10
35.432629
 20
216.840561
 30
0.0
  0
LWPOLYLINE
  5
18e
100
AcDbEntity
  8
Layer_1
 62
1
100
AcDbPolyline
 90
4
 70
1
 10
195.043010
 20
143.265270
 30
0.0
 10
181.043010
 20
143.265270
 30
0.0
 10
181.043010
 20
57.265270
 30
0.0
 10
195.043010
 20
57.265270
 30
0.0
  0
LWPOLYLINE
  5
18f
100
AcDbEntity
  8
Layer_1
 62
1
100
AcDbPolyline
 90
3
 70
0
 10
35.432629
 20
216.840561
 30
0.0
 10
35.439561
 20
212.780342
 30
0.0
 10
35.391549
 20
216.840273
 30
0.0
  0
ENDSEC
  0
SECTION
  2
OBJECTS
  0
DICTIONARY
  5
C
330
0
100
AcDbDictionary
  3
ACAD_GROUP
350
D
  3
ACAD_MLINESTYLE
350
17
  0
DICTIONARY
  5
D
330
C
100
AcDbDictionary
  0
DICTIONARY
  5
1A
330
C
100
AcDbDictionary
  0
DICTIONARY
  5
17
330
C
100
AcDbDictionary
  3
STANDARD
350
18
  0
DICTIONARY
  5
19
330
C
100
AcDbDictionary
  0
ENDSEC
  0
EOF
